<?xml version="1.0" encoding="UTF-8" standalone="no"?><svg xmlns="http://www.w3.org/2000/svg" xmlns:xlink="http://www.w3.org/1999/xlink" contentScriptType="application/ecmascript" contentStyleType="text/css" height="955px" preserveAspectRatio="none" style="width:1047px;height:955px;" version="1.1" viewBox="0 0 1047 955" width="1047px" zoomAndPan="magnify"><defs><filter height="300%" id="f1dhph28fmhqdf" width="300%" x="-1" y="-1"><feGaussianBlur result="blurOut" stdDeviation="2.0"/><feColorMatrix in="blurOut" result="blurOut2" type="matrix" values="0 0 0 0 0 0 0 0 0 0 0 0 0 0 0 0 0 0 .4 0"/><feOffset dx="4.0" dy="4.0" in="blurOut2" result="blurOut3"/><feBlend in="SourceGraphic" in2="blurOut3" mode="normal"/></filter></defs><g><!--cluster de.gematik.ti.cardreader.provider.bluetooth.feitian.control--><polygon fill="#FFFFFF" filter="url(#f1dhph28fmhqdf)" points="598,781,1015,781,1022,804.6094,1025,804.6094,1025,936,598,936,598,781" style="stroke: #000000; stroke-width: 1.5;"/><line style="stroke: #000000; stroke-width: 1.5;" x1="598" x2="1022" y1="804.6094" y2="804.6094"/><text fill="#000000" font-family="sans-serif" font-size="14" font-weight="bold" lengthAdjust="spacingAndGlyphs" textLength="411" x="602" y="797.5332">de.gematik.ti.cardreader.provider.bluetooth.feitian.control</text><!--cluster android.os--><polygon fill="#FFFFFF" filter="url(#f1dhph28fmhqdf)" points="108,24,189,24,196,47.6094,574,47.6094,574,943,108,943,108,24" style="stroke: #000000; stroke-width: 1.5;"/><line style="stroke: #000000; stroke-width: 1.5;" x1="108" x2="196" y1="47.6094" y2="47.6094"/><text fill="#000000" font-family="sans-serif" font-size="14" font-weight="bold" lengthAdjust="spacingAndGlyphs" textLength="75" x="112" y="40.5332">android.os</text><!--class CardStatusHandler--><rect fill="#FEFECE" filter="url(#f1dhph28fmhqdf)" height="103.3438" id="CardStatusHandler" style="stroke: #A80036; stroke-width: 1.5;" width="153" x="614.5" y="817"/><ellipse cx="636.25" cy="833" fill="#ADD1B2" rx="11" ry="11" style="stroke: #A80036; stroke-width: 1.0;"/><path d="M638.25,829.5 Q638.4531,829 638.6875,828.75 Q638.9219,828.5 639.1875,828.5 Q639.6563,828.5 639.9531,828.7813 Q640.25,829.0625 640.25,829.7188 L640.25,831.2813 Q640.25,831.9375 639.9688,832.2188 Q639.6875,832.5 639.25,832.5 Q638.8594,832.5 638.6094,832.3281 Q638.3594,832.1563 638.25,831.7031 Q638.2031,831.3906 638.0313,831.2188 Q637.7188,830.8906 637.1563,830.6953 Q636.5938,830.5 636.0313,830.5 Q635.3281,830.5 634.7422,830.7813 Q634.1563,831.0625 633.7031,831.6875 Q633.25,832.3125 633.25,833.1719 L633.25,834.0938 Q633.25,835.125 634.0938,835.8125 Q634.9375,836.5 636.4375,836.5 Q637.3281,836.5 637.9531,836.2969 Q638.3125,836.1875 638.7188,835.8281 Q638.9844,835.625 639.125,835.5625 Q639.2656,835.5 639.4375,835.5 Q639.7656,835.5 640.0078,835.7578 Q640.25,836.0156 640.25,836.375 Q640.25,836.7188 639.9063,837.125 Q639.4063,837.7188 638.6094,838.0469 Q637.5625,838.5 636.2813,838.5 Q634.7813,838.5 633.5781,837.9063 Q632.6094,837.4375 631.9297,836.4219 Q631.25,835.4063 631.25,834.2031 L631.25,833.1094 Q631.25,831.8594 631.8516,830.7656 Q632.4531,829.6719 633.5078,829.0859 Q634.5625,828.5 635.75,828.5 Q636.4688,828.5 637.0938,828.75 Q637.7188,829 638.25,829.5 Z "/><text fill="#000000" font-family="sans-serif" font-size="12" lengthAdjust="spacingAndGlyphs" textLength="106" x="651.75" y="837.9102">CardStatusHandler</text><line style="stroke: #A80036; stroke-width: 1.5;" x1="615.5" x2="766.5" y1="849" y2="849"/><rect fill="none" height="6" style="stroke: #C82930; stroke-width: 1.0;" width="6" x="622.5" y="858.418"/><text fill="#000000" font-family="sans-serif" font-size="11" lengthAdjust="spacingAndGlyphs" text-decoration="underline" textLength="65" x="634.5" y="864.4189">LOG : Logger</text><line style="stroke: #A80036; stroke-width: 1.5;" x1="615.5" x2="766.5" y1="870.8359" y2="870.8359"/><ellipse cx="625.5" cy="883.2539" fill="#84BE84" rx="3" ry="3" style="stroke: #038048; stroke-width: 1.0;"/><text fill="#000000" font-family="sans-serif" font-size="11" lengthAdjust="spacingAndGlyphs" textLength="99" x="634.5" y="886.2549">CardStatusHandler()</text><ellipse cx="625.5" cy="897.0898" fill="#84BE84" rx="3" ry="3" style="stroke: #038048; stroke-width: 1.0;"/><text fill="#000000" font-family="sans-serif" font-size="11" lengthAdjust="spacingAndGlyphs" textLength="84" x="634.5" y="900.0908">handleMessage()</text><ellipse cx="625.5" cy="910.9258" fill="#84BE84" rx="3" ry="3" style="stroke: #038048; stroke-width: 1.0;"/><text fill="#000000" font-family="sans-serif" font-size="11" lengthAdjust="spacingAndGlyphs" textLength="127" x="634.5" y="913.9268">informAboutCardPresent()</text><!--class Handler--><rect fill="#FEFECE" filter="url(#f1dhph28fmhqdf)" height="656.7813" id="Handler" style="stroke: #A80036; stroke-width: 1.5;" width="198" x="319" y="60"/><ellipse cx="391.75" cy="76" fill="#ADD1B2" rx="11" ry="11" style="stroke: #A80036; stroke-width: 1.0;"/><path d="M393.75,72.5 Q393.9531,72 394.1875,71.75 Q394.4219,71.5 394.6875,71.5 Q395.1563,71.5 395.4531,71.7813 Q395.75,72.0625 395.75,72.7188 L395.75,74.2813 Q395.75,74.9375 395.4688,75.2188 Q395.1875,75.5 394.75,75.5 Q394.3594,75.5 394.1094,75.3281 Q393.8594,75.1563 393.75,74.7031 Q393.7031,74.3906 393.5313,74.2188 Q393.2188,73.8906 392.6563,73.6953 Q392.0938,73.5 391.5313,73.5 Q390.8281,73.5 390.2422,73.7813 Q389.6563,74.0625 389.2031,74.6875 Q388.75,75.3125 388.75,76.1719 L388.75,77.0938 Q388.75,78.125 389.5938,78.8125 Q390.4375,79.5 391.9375,79.5 Q392.8281,79.5 393.4531,79.2969 Q393.8125,79.1875 394.2188,78.8281 Q394.4844,78.625 394.625,78.5625 Q394.7656,78.5 394.9375,78.5 Q395.2656,78.5 395.5078,78.7578 Q395.75,79.0156 395.75,79.375 Q395.75,79.7188 395.4063,80.125 Q394.9063,80.7188 394.1094,81.0469 Q393.0625,81.5 391.7813,81.5 Q390.2813,81.5 389.0781,80.9063 Q388.1094,80.4375 387.4297,79.4219 Q386.75,78.4063 386.75,77.2031 L386.75,76.1094 Q386.75,74.8594 387.3516,73.7656 Q387.9531,72.6719 389.0078,72.0859 Q390.0625,71.5 391.25,71.5 Q391.9688,71.5 392.5938,71.75 Q393.2188,72 393.75,72.5 Z "/><text fill="#000000" font-family="sans-serif" font-size="12" lengthAdjust="spacingAndGlyphs" textLength="44" x="412.25" y="80.9102">Handler</text><line style="stroke: #A80036; stroke-width: 1.5;" x1="320" x2="516" y1="92" y2="92"/><rect fill="none" height="6" style="stroke: #C82930; stroke-width: 1.0;" width="6" x="327" y="101.418"/><text fill="#000000" font-family="sans-serif" font-size="11" lengthAdjust="spacingAndGlyphs" text-decoration="underline" textLength="170" x="339" y="107.4189">FIND_POTENTIAL_LEAKS : boolean</text><rect fill="none" height="6" style="stroke: #C82930; stroke-width: 1.0;" width="6" x="327" y="115.2539"/><text fill="#000000" font-family="sans-serif" font-size="11" lengthAdjust="spacingAndGlyphs" text-decoration="underline" textLength="59" x="339" y="121.2549">TAG : String</text><rect fill="none" height="6" style="stroke: #C82930; stroke-width: 1.0;" width="6" x="327" y="129.0898"/><text fill="#000000" font-family="sans-serif" font-size="11" lengthAdjust="spacingAndGlyphs" text-decoration="underline" textLength="172" x="339" y="135.0908">MAIN_THREAD_HANDLER : Handler</text><polygon fill="none" points="330,141.9258,326,147.9258,334,147.9258" style="stroke: #1963A0; stroke-width: 1.0;"/><text fill="#000000" font-family="sans-serif" font-size="11" lengthAdjust="spacingAndGlyphs" textLength="85" x="339" y="148.9268">mLooper : Looper</text><polygon fill="none" points="330,155.7617,326,161.7617,334,161.7617" style="stroke: #1963A0; stroke-width: 1.0;"/><text fill="#000000" font-family="sans-serif" font-size="11" lengthAdjust="spacingAndGlyphs" textLength="125" x="339" y="162.7627">mQueue : MessageQueue</text><polygon fill="none" points="330,169.5977,326,175.5977,334,175.5977" style="stroke: #1963A0; stroke-width: 1.0;"/><text fill="#000000" font-family="sans-serif" font-size="11" lengthAdjust="spacingAndGlyphs" textLength="127" x="339" y="176.5986">mAsynchronous : boolean</text><polygon fill="none" points="330,183.4336,326,189.4336,334,189.4336" style="stroke: #1963A0; stroke-width: 1.0;"/><text fill="#000000" font-family="sans-serif" font-size="11" lengthAdjust="spacingAndGlyphs" textLength="127" x="339" y="190.4346">mMessenger : IMessenger</text><line style="stroke: #A80036; stroke-width: 1.5;" x1="320" x2="516" y1="196.8516" y2="196.8516"/><ellipse cx="330" cy="209.2695" fill="#84BE84" rx="3" ry="3" style="stroke: #038048; stroke-width: 1.0;"/><text fill="#000000" font-family="sans-serif" font-size="11" lengthAdjust="spacingAndGlyphs" textLength="84" x="339" y="212.2705">handleMessage()</text><ellipse cx="330" cy="223.1055" fill="#84BE84" rx="3" ry="3" style="stroke: #038048; stroke-width: 1.0;"/><text fill="#000000" font-family="sans-serif" font-size="11" lengthAdjust="spacingAndGlyphs" textLength="93" x="339" y="226.1064">dispatchMessage()</text><ellipse cx="330" cy="236.9414" fill="#84BE84" rx="3" ry="3" style="stroke: #038048; stroke-width: 1.0;"/><text fill="#000000" font-family="sans-serif" font-size="11" lengthAdjust="spacingAndGlyphs" textLength="45" x="339" y="239.9424">Handler()</text><ellipse cx="330" cy="250.7773" fill="#84BE84" rx="3" ry="3" style="stroke: #038048; stroke-width: 1.0;"/><text fill="#000000" font-family="sans-serif" font-size="11" lengthAdjust="spacingAndGlyphs" text-decoration="underline" textLength="71" x="339" y="253.7783">createAsync()</text><ellipse cx="330" cy="264.6133" fill="#84BE84" rx="3" ry="3" style="stroke: #038048; stroke-width: 1.0;"/><text fill="#000000" font-family="sans-serif" font-size="11" lengthAdjust="spacingAndGlyphs" text-decoration="underline" textLength="45" x="339" y="267.6143">getMain()</text><ellipse cx="330" cy="278.4492" fill="#84BE84" rx="3" ry="3" style="stroke: #038048; stroke-width: 1.0;"/><text fill="#000000" font-family="sans-serif" font-size="11" lengthAdjust="spacingAndGlyphs" text-decoration="underline" textLength="53" x="339" y="281.4502">mainIfNull()</text><ellipse cx="330" cy="292.2852" fill="#84BE84" rx="3" ry="3" style="stroke: #038048; stroke-width: 1.0;"/><text fill="#000000" font-family="sans-serif" font-size="11" lengthAdjust="spacingAndGlyphs" textLength="78" x="339" y="295.2861">getTraceName()</text><ellipse cx="330" cy="306.1211" fill="#84BE84" rx="3" ry="3" style="stroke: #038048; stroke-width: 1.0;"/><text fill="#000000" font-family="sans-serif" font-size="11" lengthAdjust="spacingAndGlyphs" textLength="94" x="339" y="309.1221">getMessageName()</text><ellipse cx="330" cy="319.957" fill="#84BE84" rx="3" ry="3" style="stroke: #038048; stroke-width: 1.0;"/><text fill="#000000" font-family="sans-serif" font-size="11" lengthAdjust="spacingAndGlyphs" textLength="81" x="339" y="322.958">obtainMessage()</text><ellipse cx="330" cy="333.793" fill="#84BE84" rx="3" ry="3" style="stroke: #038048; stroke-width: 1.0;"/><text fill="#000000" font-family="sans-serif" font-size="11" lengthAdjust="spacingAndGlyphs" textLength="29" x="339" y="336.7939">post()</text><ellipse cx="330" cy="347.6289" fill="#84BE84" rx="3" ry="3" style="stroke: #038048; stroke-width: 1.0;"/><text fill="#000000" font-family="sans-serif" font-size="11" lengthAdjust="spacingAndGlyphs" textLength="62" x="339" y="350.6299">postAtTime()</text><ellipse cx="330" cy="361.4648" fill="#84BE84" rx="3" ry="3" style="stroke: #038048; stroke-width: 1.0;"/><text fill="#000000" font-family="sans-serif" font-size="11" lengthAdjust="spacingAndGlyphs" textLength="68" x="339" y="364.4658">postDelayed()</text><ellipse cx="330" cy="375.3008" fill="#84BE84" rx="3" ry="3" style="stroke: #038048; stroke-width: 1.0;"/><text fill="#000000" font-family="sans-serif" font-size="11" lengthAdjust="spacingAndGlyphs" textLength="109" x="339" y="378.3018">postAtFrontOfQueue()</text><ellipse cx="330" cy="389.1367" fill="#84BE84" rx="3" ry="3" style="stroke: #038048; stroke-width: 1.0;"/><text fill="#000000" font-family="sans-serif" font-size="11" lengthAdjust="spacingAndGlyphs" textLength="88" x="339" y="392.1377">runWithScissors()</text><ellipse cx="330" cy="402.9727" fill="#84BE84" rx="3" ry="3" style="stroke: #038048; stroke-width: 1.0;"/><text fill="#000000" font-family="sans-serif" font-size="11" lengthAdjust="spacingAndGlyphs" textLength="90" x="339" y="405.9736">removeCallbacks()</text><ellipse cx="330" cy="416.8086" fill="#84BE84" rx="3" ry="3" style="stroke: #038048; stroke-width: 1.0;"/><text fill="#000000" font-family="sans-serif" font-size="11" lengthAdjust="spacingAndGlyphs" textLength="76" x="339" y="419.8096">sendMessage()</text><ellipse cx="330" cy="430.6445" fill="#84BE84" rx="3" ry="3" style="stroke: #038048; stroke-width: 1.0;"/><text fill="#000000" font-family="sans-serif" font-size="11" lengthAdjust="spacingAndGlyphs" textLength="105" x="339" y="433.6455">sendEmptyMessage()</text><ellipse cx="330" cy="444.4805" fill="#84BE84" rx="3" ry="3" style="stroke: #038048; stroke-width: 1.0;"/><text fill="#000000" font-family="sans-serif" font-size="11" lengthAdjust="spacingAndGlyphs" textLength="144" x="339" y="447.4814">sendEmptyMessageDelayed()</text><ellipse cx="330" cy="458.3164" fill="#84BE84" rx="3" ry="3" style="stroke: #038048; stroke-width: 1.0;"/><text fill="#000000" font-family="sans-serif" font-size="11" lengthAdjust="spacingAndGlyphs" textLength="138" x="339" y="461.3174">sendEmptyMessageAtTime()</text><ellipse cx="330" cy="472.1523" fill="#84BE84" rx="3" ry="3" style="stroke: #038048; stroke-width: 1.0;"/><text fill="#000000" font-family="sans-serif" font-size="11" lengthAdjust="spacingAndGlyphs" textLength="115" x="339" y="475.1533">sendMessageDelayed()</text><ellipse cx="330" cy="485.9883" fill="#84BE84" rx="3" ry="3" style="stroke: #038048; stroke-width: 1.0;"/><text fill="#000000" font-family="sans-serif" font-size="11" lengthAdjust="spacingAndGlyphs" textLength="109" x="339" y="488.9893">sendMessageAtTime()</text><ellipse cx="330" cy="499.8242" fill="#84BE84" rx="3" ry="3" style="stroke: #038048; stroke-width: 1.0;"/><text fill="#000000" font-family="sans-serif" font-size="11" lengthAdjust="spacingAndGlyphs" textLength="156" x="339" y="502.8252">sendMessageAtFrontOfQueue()</text><ellipse cx="330" cy="513.6602" fill="#84BE84" rx="3" ry="3" style="stroke: #038048; stroke-width: 1.0;"/><text fill="#000000" font-family="sans-serif" font-size="11" lengthAdjust="spacingAndGlyphs" textLength="128" x="339" y="516.6611">executeOrSendMessage()</text><rect fill="#F24D5C" height="6" style="stroke: #C82930; stroke-width: 1.0;" width="6" x="327" y="524.4961"/><text fill="#000000" font-family="sans-serif" font-size="11" lengthAdjust="spacingAndGlyphs" textLength="94" x="339" y="530.4971">enqueueMessage()</text><ellipse cx="330" cy="541.332" fill="#84BE84" rx="3" ry="3" style="stroke: #038048; stroke-width: 1.0;"/><text fill="#000000" font-family="sans-serif" font-size="11" lengthAdjust="spacingAndGlyphs" textLength="94" x="339" y="544.333">removeMessages()</text><ellipse cx="330" cy="555.168" fill="#84BE84" rx="3" ry="3" style="stroke: #038048; stroke-width: 1.0;"/><text fill="#000000" font-family="sans-serif" font-size="11" lengthAdjust="spacingAndGlyphs" textLength="160" x="339" y="558.1689">removeCallbacksAndMessages()</text><ellipse cx="330" cy="569.0039" fill="#84BE84" rx="3" ry="3" style="stroke: #038048; stroke-width: 1.0;"/><text fill="#000000" font-family="sans-serif" font-size="11" lengthAdjust="spacingAndGlyphs" textLength="76" x="339" y="572.0049">hasMessages()</text><ellipse cx="330" cy="582.8398" fill="#84BE84" rx="3" ry="3" style="stroke: #038048; stroke-width: 1.0;"/><text fill="#000000" font-family="sans-serif" font-size="11" lengthAdjust="spacingAndGlyphs" textLength="134" x="339" y="585.8408">hasMessagesOrCallbacks()</text><ellipse cx="330" cy="596.6758" fill="#84BE84" rx="3" ry="3" style="stroke: #038048; stroke-width: 1.0;"/><text fill="#000000" font-family="sans-serif" font-size="11" lengthAdjust="spacingAndGlyphs" textLength="76" x="339" y="599.6768">hasMessages()</text><ellipse cx="330" cy="610.5117" fill="#84BE84" rx="3" ry="3" style="stroke: #038048; stroke-width: 1.0;"/><text fill="#000000" font-family="sans-serif" font-size="11" lengthAdjust="spacingAndGlyphs" textLength="72" x="339" y="613.5127">hasCallbacks()</text><ellipse cx="330" cy="624.3477" fill="#84BE84" rx="3" ry="3" style="stroke: #038048; stroke-width: 1.0;"/><text fill="#000000" font-family="sans-serif" font-size="11" lengthAdjust="spacingAndGlyphs" textLength="57" x="339" y="627.3486">getLooper()</text><ellipse cx="330" cy="638.1836" fill="#84BE84" rx="3" ry="3" style="stroke: #038048; stroke-width: 1.0;"/><text fill="#000000" font-family="sans-serif" font-size="11" lengthAdjust="spacingAndGlyphs" textLength="34" x="339" y="641.1846">dump()</text><ellipse cx="330" cy="652.0195" fill="#84BE84" rx="3" ry="3" style="stroke: #038048; stroke-width: 1.0;"/><text fill="#000000" font-family="sans-serif" font-size="11" lengthAdjust="spacingAndGlyphs" textLength="56" x="339" y="655.0205">dumpMine()</text><ellipse cx="330" cy="665.8555" fill="#84BE84" rx="3" ry="3" style="stroke: #038048; stroke-width: 1.0;"/><text fill="#000000" font-family="sans-serif" font-size="11" lengthAdjust="spacingAndGlyphs" textLength="45" x="339" y="668.8564">toString()</text><polygon fill="#4177AF" points="330,675.6914,326,681.6914,334,681.6914" style="stroke: #1963A0; stroke-width: 1.0;"/><text fill="#000000" font-family="sans-serif" font-size="11" lengthAdjust="spacingAndGlyphs" textLength="79" x="339" y="682.6924">getIMessenger()</text><rect fill="#F24D5C" height="6" style="stroke: #C82930; stroke-width: 1.0;" width="6" x="327" y="690.5273"/><text fill="#000000" font-family="sans-serif" font-size="11" lengthAdjust="spacingAndGlyphs" text-decoration="underline" textLength="88" x="339" y="696.5283">getPostMessage()</text><rect fill="#F24D5C" height="6" style="stroke: #C82930; stroke-width: 1.0;" width="6" x="327" y="704.3633"/><text fill="#000000" font-family="sans-serif" font-size="11" lengthAdjust="spacingAndGlyphs" text-decoration="underline" textLength="80" x="339" y="710.3643">handleCallback()</text><!--class Callback--><rect fill="#FEFECE" filter="url(#f1dhph28fmhqdf)" height="61.8359" id="Callback" style="stroke: #A80036; stroke-width: 1.5;" width="112" x="293" y="837.5"/><ellipse cx="321.5" cy="853.5" fill="#B4A7E5" rx="11" ry="11" style="stroke: #A80036; stroke-width: 1.0;"/><path d="M322.5,850.5 L322.5,856.5 L324.5,856.5 L324.9844,856.5 L325.5,857.125 L325.5,857.5 L325.5,857.875 L324.9844,858.5 L324.5,858.5 L318.5,858.5 L318.0156,858.5 L317.5,857.875 L317.5,857.5 L317.5,857.125 L318.0156,856.5 L318.5,856.5 L320.5,856.5 L320.5,850.5 L318.5,850.5 L318.0156,850.5 L317.5,849.875 L317.5,849.5 L317.5,849.125 L318.0156,848.5 L318.5,848.5 L324.5,848.5 L324.9844,848.5 L325.5,849.125 L325.5,849.5 L325.5,849.875 L324.9844,850.5 L324.5,850.5 L322.5,850.5 Z "/><text fill="#000000" font-family="sans-serif" font-size="12" font-style="italic" lengthAdjust="spacingAndGlyphs" textLength="50" x="338.5" y="858.4102">Callback</text><line style="stroke: #A80036; stroke-width: 1.5;" x1="294" x2="404" y1="869.5" y2="869.5"/><line style="stroke: #A80036; stroke-width: 1.5;" x1="294" x2="404" y1="877.5" y2="877.5"/><ellipse cx="304" cy="889.918" fill="#84BE84" rx="3" ry="3" style="stroke: #038048; stroke-width: 1.0;"/><text fill="#000000" font-family="sans-serif" font-size="11" font-style="italic" lengthAdjust="spacingAndGlyphs" textLength="86" x="313" y="892.9189">handleMessage()</text><!--class MessengerImpl--><rect fill="#FEFECE" filter="url(#f1dhph28fmhqdf)" height="61.8359" id="MessengerImpl" style="stroke: #A80036; stroke-width: 1.5;" width="118" x="440" y="837.5"/><ellipse cx="455" cy="853.5" fill="#ADD1B2" rx="11" ry="11" style="stroke: #A80036; stroke-width: 1.0;"/><path d="M457,850 Q457.2031,849.5 457.4375,849.25 Q457.6719,849 457.9375,849 Q458.4063,849 458.7031,849.2813 Q459,849.5625 459,850.2188 L459,851.7813 Q459,852.4375 458.7188,852.7188 Q458.4375,853 458,853 Q457.6094,853 457.3594,852.8281 Q457.1094,852.6563 457,852.2031 Q456.9531,851.8906 456.7813,851.7188 Q456.4688,851.3906 455.9063,851.1953 Q455.3438,851 454.7813,851 Q454.0781,851 453.4922,851.2813 Q452.9063,851.5625 452.4531,852.1875 Q452,852.8125 452,853.6719 L452,854.5938 Q452,855.625 452.8438,856.3125 Q453.6875,857 455.1875,857 Q456.0781,857 456.7031,856.7969 Q457.0625,856.6875 457.4688,856.3281 Q457.7344,856.125 457.875,856.0625 Q458.0156,856 458.1875,856 Q458.5156,856 458.7578,856.2578 Q459,856.5156 459,856.875 Q459,857.2188 458.6563,857.625 Q458.1563,858.2188 457.3594,858.5469 Q456.3125,859 455.0313,859 Q453.5313,859 452.3281,858.4063 Q451.3594,857.9375 450.6797,856.9219 Q450,855.9063 450,854.7031 L450,853.6094 Q450,852.3594 450.6016,851.2656 Q451.2031,850.1719 452.2578,849.5859 Q453.3125,849 454.5,849 Q455.2188,849 455.8438,849.25 Q456.4688,849.5 457,850 Z "/><text fill="#000000" font-family="sans-serif" font-size="12" lengthAdjust="spacingAndGlyphs" textLength="86" x="469" y="858.4102">MessengerImpl</text><line style="stroke: #A80036; stroke-width: 1.5;" x1="441" x2="557" y1="869.5" y2="869.5"/><line style="stroke: #A80036; stroke-width: 1.5;" x1="441" x2="557" y1="877.5" y2="877.5"/><ellipse cx="451" cy="889.918" fill="#84BE84" rx="3" ry="3" style="stroke: #038048; stroke-width: 1.0;"/><text fill="#000000" font-family="sans-serif" font-size="11" lengthAdjust="spacingAndGlyphs" textLength="32" x="460" y="892.9189">send()</text><!--class BlockingRunnable--><rect fill="#FEFECE" filter="url(#f1dhph28fmhqdf)" height="117.1797" id="BlockingRunnable" style="stroke: #A80036; stroke-width: 1.5;" width="133" x="124.5" y="810"/><ellipse cx="139.5" cy="826" fill="#ADD1B2" rx="11" ry="11" style="stroke: #A80036; stroke-width: 1.0;"/><path d="M141.5,822.5 Q141.7031,822 141.9375,821.75 Q142.1719,821.5 142.4375,821.5 Q142.9063,821.5 143.2031,821.7813 Q143.5,822.0625 143.5,822.7188 L143.5,824.2813 Q143.5,824.9375 143.2188,825.2188 Q142.9375,825.5 142.5,825.5 Q142.1094,825.5 141.8594,825.3281 Q141.6094,825.1563 141.5,824.7031 Q141.4531,824.3906 141.2813,824.2188 Q140.9688,823.8906 140.4063,823.6953 Q139.8438,823.5 139.2813,823.5 Q138.5781,823.5 137.9922,823.7813 Q137.4063,824.0625 136.9531,824.6875 Q136.5,825.3125 136.5,826.1719 L136.5,827.0938 Q136.5,828.125 137.3438,828.8125 Q138.1875,829.5 139.6875,829.5 Q140.5781,829.5 141.2031,829.2969 Q141.5625,829.1875 141.9688,828.8281 Q142.2344,828.625 142.375,828.5625 Q142.5156,828.5 142.6875,828.5 Q143.0156,828.5 143.2578,828.7578 Q143.5,829.0156 143.5,829.375 Q143.5,829.7188 143.1563,830.125 Q142.6563,830.7188 141.8594,831.0469 Q140.8125,831.5 139.5313,831.5 Q138.0313,831.5 136.8281,830.9063 Q135.8594,830.4375 135.1797,829.4219 Q134.5,828.4063 134.5,827.2031 L134.5,826.1094 Q134.5,824.8594 135.1016,823.7656 Q135.7031,822.6719 136.7578,822.0859 Q137.8125,821.5 139,821.5 Q139.7188,821.5 140.3438,821.75 Q140.9688,822 141.5,822.5 Z "/><text fill="#000000" font-family="sans-serif" font-size="12" lengthAdjust="spacingAndGlyphs" textLength="101" x="153.5" y="830.9102">BlockingRunnable</text><line style="stroke: #A80036; stroke-width: 1.5;" x1="125.5" x2="256.5" y1="842" y2="842"/><rect fill="none" height="6" style="stroke: #C82930; stroke-width: 1.0;" width="6" x="132.5" y="851.418"/><text fill="#000000" font-family="sans-serif" font-size="11" lengthAdjust="spacingAndGlyphs" textLength="85" x="144.5" y="857.4189">mTask : Runnable</text><rect fill="none" height="6" style="stroke: #C82930; stroke-width: 1.0;" width="6" x="132.5" y="865.2539"/><text fill="#000000" font-family="sans-serif" font-size="11" lengthAdjust="spacingAndGlyphs" textLength="80" x="144.5" y="871.2549">mDone : boolean</text><line style="stroke: #A80036; stroke-width: 1.5;" x1="125.5" x2="256.5" y1="877.6719" y2="877.6719"/><ellipse cx="135.5" cy="890.0898" fill="#84BE84" rx="3" ry="3" style="stroke: #038048; stroke-width: 1.0;"/><text fill="#000000" font-family="sans-serif" font-size="11" lengthAdjust="spacingAndGlyphs" textLength="93" x="144.5" y="893.0908">BlockingRunnable()</text><ellipse cx="135.5" cy="903.9258" fill="#84BE84" rx="3" ry="3" style="stroke: #038048; stroke-width: 1.0;"/><text fill="#000000" font-family="sans-serif" font-size="11" lengthAdjust="spacingAndGlyphs" textLength="24" x="144.5" y="906.9268">run()</text><ellipse cx="135.5" cy="917.7617" fill="#84BE84" rx="3" ry="3" style="stroke: #038048; stroke-width: 1.0;"/><text fill="#000000" font-family="sans-serif" font-size="11" lengthAdjust="spacingAndGlyphs" textLength="70" x="144.5" y="920.7627">postAndWait()</text><!--class Runnable--><rect fill="#FEFECE" filter="url(#f1dhph28fmhqdf)" height="48" id="Runnable" style="stroke: #A80036; stroke-width: 1.5;" width="86" x="6" y="364.5"/><ellipse cx="21" cy="380.5" fill="#ADD1B2" rx="11" ry="11" style="stroke: #A80036; stroke-width: 1.0;"/><path d="M23,377 Q23.2031,376.5 23.4375,376.25 Q23.6719,376 23.9375,376 Q24.4063,376 24.7031,376.2813 Q25,376.5625 25,377.2188 L25,378.7813 Q25,379.4375 24.7188,379.7188 Q24.4375,380 24,380 Q23.6094,380 23.3594,379.8281 Q23.1094,379.6563 23,379.2031 Q22.9531,378.8906 22.7813,378.7188 Q22.4688,378.3906 21.9063,378.1953 Q21.3438,378 20.7813,378 Q20.0781,378 19.4922,378.2813 Q18.9063,378.5625 18.4531,379.1875 Q18,379.8125 18,380.6719 L18,381.5938 Q18,382.625 18.8438,383.3125 Q19.6875,384 21.1875,384 Q22.0781,384 22.7031,383.7969 Q23.0625,383.6875 23.4688,383.3281 Q23.7344,383.125 23.875,383.0625 Q24.0156,383 24.1875,383 Q24.5156,383 24.7578,383.2578 Q25,383.5156 25,383.875 Q25,384.2188 24.6563,384.625 Q24.1563,385.2188 23.3594,385.5469 Q22.3125,386 21.0313,386 Q19.5313,386 18.3281,385.4063 Q17.3594,384.9375 16.6797,383.9219 Q16,382.9063 16,381.7031 L16,380.6094 Q16,379.3594 16.6016,378.2656 Q17.2031,377.1719 18.2578,376.5859 Q19.3125,376 20.5,376 Q21.2188,376 21.8438,376.25 Q22.4688,376.5 23,377 Z "/><text fill="#000000" font-family="sans-serif" font-size="12" lengthAdjust="spacingAndGlyphs" textLength="54" x="35" y="385.4102">Runnable</text><line style="stroke: #A80036; stroke-width: 1.5;" x1="7" x2="91" y1="396.5" y2="396.5"/><line style="stroke: #A80036; stroke-width: 1.5;" x1="7" x2="91" y1="404.5" y2="404.5"/><!--link Handler to Callback--><path d="M347.778,730.409 C347.141,735.974 346.548,741.507 346,747 C345.206,754.961 345.883,757.001 346,765 C346.357,789.387 347.191,817.028 347.889,837.455 " fill="none" id="Handler-Callback" style="stroke: #A80036; stroke-width: 1.0;"/><polygon fill="#FFFFFF" points="349.338,717.372,344.653,722.8539,347.9113,729.2869,352.5963,723.805,349.338,717.372" style="stroke: #A80036; stroke-width: 1.0;"/><text fill="#000000" font-family="sans-serif" font-size="13" lengthAdjust="spacingAndGlyphs" textLength="61" x="347" y="761.4951">mCallback</text><!--link Handler to Callback--><path d="M421.319,732.039 C418.922,743.221 416.162,754.235 413,765 C405.194,791.57 388.423,817.991 374.006,837.353 " fill="none" id="Handler-Callback-1" style="stroke: #A80036; stroke-width: 1.0;"/><ellipse cx="422.7024" cy="725.0959" fill="#FFFFFF" rx="8" ry="8" style="stroke: #A80036; stroke-width: 1.0;"/><line style="stroke: #A80036; stroke-width: 1.0;" x1="421.1397" x2="424.265" y1="732.9418" y2="717.25"/><line style="stroke: #A80036; stroke-width: 1.0;" x1="414.8565" x2="430.5483" y1="723.5333" y2="726.6585"/><!--link Handler to MessengerImpl--><path d="M476.05,732.067 C483.357,775.185 489.718,812.727 493.879,837.278 " fill="none" id="Handler-MessengerImpl" style="stroke: #A80036; stroke-width: 1.0;"/><ellipse cx="474.8744" cy="725.1296" fill="#FFFFFF" rx="8" ry="8" style="stroke: #A80036; stroke-width: 1.0;"/><line style="stroke: #A80036; stroke-width: 1.0;" x1="476.2109" x2="473.538" y1="733.0172" y2="717.242"/><line style="stroke: #A80036; stroke-width: 1.0;" x1="466.9869" x2="482.762" y1="726.466" y2="723.7931"/><!--link Handler to BlockingRunnable--><path d="M312.459,611.741 C277.723,684.886 241.987,760.134 218.353,809.902 " fill="none" id="Handler-BlockingRunnable" style="stroke: #A80036; stroke-width: 1.0;"/><ellipse cx="315.4975" cy="605.3412" fill="#FFFFFF" rx="8" ry="8" style="stroke: #A80036; stroke-width: 1.0;"/><line style="stroke: #A80036; stroke-width: 1.0;" x1="312.065" x2="318.93" y1="612.5674" y2="598.115"/><line style="stroke: #A80036; stroke-width: 1.0;" x1="308.2713" x2="322.7237" y1="601.9087" y2="608.7737"/><!--link Runnable to BlockingRunnable--><path d="M52.2898,432.779 C58.1339,496.565 73.163,618.865 108,717 C119.43,749.197 137.239,782.699 153.435,809.899 " fill="none" id="Runnable-BlockingRunnable" style="stroke: #A80036; stroke-width: 1.0;"/><polygon fill="none" points="45.3102,433.315,50.5883,412.793,59.2597,432.127,45.3102,433.315" style="stroke: #A80036; stroke-width: 1.0;"/><!--link Handler to CardStatusHandler--><path d="M527.179,580.663 C576.138,666.387 629.987,760.671 662.118,816.93 " fill="none" id="Handler-CardStatusHandler" style="stroke: #A80036; stroke-width: 1.0;"/><polygon fill="none" points="520.979,583.922,517.138,563.083,533.136,576.978,520.979,583.922" style="stroke: #A80036; stroke-width: 1.0;"/><!--
@startuml

    package de.gematik.ti.cardreader.provider.bluetooth.feitian.control {
      class CardStatusHandler {
          {static} - LOG : Logger
          + CardStatusHandler()
          + handleMessage()
          + informAboutCardPresent()
      }
    }

    package android.os {
        class Handler {
            {static} - FIND_POTENTIAL_LEAKS : boolean
            {static} - TAG : String
            {static} - MAIN_THREAD_HANDLER : Handler
            ~ mLooper : Looper
            ~ mQueue : MessageQueue
            ~ mAsynchronous : boolean
            ~ mMessenger : IMessenger
            + handleMessage()
            + dispatchMessage()
            + Handler()
            {static} + createAsync()
            {static} + getMain()
            {static} + mainIfNull()
            + getTraceName()
            + getMessageName()
            + obtainMessage()
            + post()
            + postAtTime()
            + postDelayed()
            + postAtFrontOfQueue()
            + runWithScissors()
            + removeCallbacks()
            + sendMessage()
            + sendEmptyMessage()
            + sendEmptyMessageDelayed()
            + sendEmptyMessageAtTime()
            + sendMessageDelayed()
            + sendMessageAtTime()
            + sendMessageAtFrontOfQueue()
            + executeOrSendMessage()
            - enqueueMessage()
            + removeMessages()
            + removeCallbacksAndMessages()
            + hasMessages()
            + hasMessagesOrCallbacks()
            + hasMessages()
            + hasCallbacks()
            + getLooper()
            + dump()
            + dumpMine()
            + toString()
            ~ getIMessenger()
            {static} - getPostMessage()
            {static} - handleCallback()
        }
      }


      package android.os {
        interface Callback {
            {abstract} + handleMessage()
        }
      }


      package android.os {
        class MessengerImpl {
            + send()
        }
      }


      package android.os {
        class BlockingRunnable {
            - mTask : Runnable
            - mDone : boolean
            + BlockingRunnable()
            + run()
            + postAndWait()
        }
      }


      Handler o- - Callback : mCallback
      Handler +-down- Callback
      Handler +-down- MessengerImpl
      Handler +-down- BlockingRunnable
      BlockingRunnable -up-|> Runnable

    CardStatusHandler -up-|> Handler

@enduml

PlantUML version 1.2019.06(Fri May 24 19:10:25 CEST 2019)
(APACHE source distribution)
Java Runtime: OpenJDK Runtime Environment
JVM: OpenJDK 64-Bit Server VM
Java Version: 1.8.0_202-release-1483-b03
Operating System: Windows 7
OS Version: 6.1
Default Encoding: Cp1252
Language: de
Country: DE
--></g></svg>