<?xml version="1.0" encoding="UTF-8" standalone="no"?><svg xmlns="http://www.w3.org/2000/svg" xmlns:xlink="http://www.w3.org/1999/xlink" contentScriptType="application/ecmascript" contentStyleType="text/css" height="358px" preserveAspectRatio="none" style="width:474px;height:358px;" version="1.1" viewBox="0 0 474 358" width="474px" zoomAndPan="magnify"><defs><filter height="300%" id="f1591vkr4s8nqg" width="300%" x="-1" y="-1"><feGaussianBlur result="blurOut" stdDeviation="2.0"/><feColorMatrix in="blurOut" result="blurOut2" type="matrix" values="0 0 0 0 0 0 0 0 0 0 0 0 0 0 0 0 0 0 .4 0"/><feOffset dx="4.0" dy="4.0" in="blurOut2" result="blurOut3"/><feBlend in="SourceGraphic" in2="blurOut3" mode="normal"/></filter></defs><g><!--cluster de.gematik.ti.cardreader.provider.bluetooth.feitian.entities--><polygon fill="#FFFFFF" filter="url(#f1591vkr4s8nqg)" points="22,80,442,80,449,103.6094,452,103.6094,452,346,22,346,22,80" style="stroke: #000000; stroke-width: 1.5;"/><line style="stroke: #000000; stroke-width: 1.5;" x1="22" x2="449" y1="103.6094" y2="103.6094"/><text fill="#000000" font-family="sans-serif" font-size="14" font-weight="bold" lengthAdjust="spacingAndGlyphs" textLength="414" x="26" y="96.5332">de.gematik.ti.cardreader.provider.bluetooth.feitian.entities</text><!--class FeitianCardReader--><rect fill="#FEFECE" filter="url(#f1591vkr4s8nqg)" height="214.0313" id="FeitianCardReader" style="stroke: #A80036; stroke-width: 1.5;" width="137" x="168.5" y="116"/><ellipse cx="183.5" cy="132" fill="#ADD1B2" rx="11" ry="11" style="stroke: #A80036; stroke-width: 1.0;"/><path d="M185.5,128.5 Q185.7031,128 185.9375,127.75 Q186.1719,127.5 186.4375,127.5 Q186.9063,127.5 187.2031,127.7813 Q187.5,128.0625 187.5,128.7188 L187.5,130.2813 Q187.5,130.9375 187.2188,131.2188 Q186.9375,131.5 186.5,131.5 Q186.1094,131.5 185.8594,131.3281 Q185.6094,131.1563 185.5,130.7031 Q185.4531,130.3906 185.2813,130.2188 Q184.9688,129.8906 184.4063,129.6953 Q183.8438,129.5 183.2813,129.5 Q182.5781,129.5 181.9922,129.7813 Q181.4063,130.0625 180.9531,130.6875 Q180.5,131.3125 180.5,132.1719 L180.5,133.0938 Q180.5,134.125 181.3438,134.8125 Q182.1875,135.5 183.6875,135.5 Q184.5781,135.5 185.2031,135.2969 Q185.5625,135.1875 185.9688,134.8281 Q186.2344,134.625 186.375,134.5625 Q186.5156,134.5 186.6875,134.5 Q187.0156,134.5 187.2578,134.7578 Q187.5,135.0156 187.5,135.375 Q187.5,135.7188 187.1563,136.125 Q186.6563,136.7188 185.8594,137.0469 Q184.8125,137.5 183.5313,137.5 Q182.0313,137.5 180.8281,136.9063 Q179.8594,136.4375 179.1797,135.4219 Q178.5,134.4063 178.5,133.2031 L178.5,132.1094 Q178.5,130.8594 179.1016,129.7656 Q179.7031,128.6719 180.7578,128.0859 Q181.8125,127.5 183,127.5 Q183.7188,127.5 184.3438,127.75 Q184.9688,128 185.5,128.5 Z "/><text fill="#000000" font-family="sans-serif" font-size="12" lengthAdjust="spacingAndGlyphs" textLength="105" x="197.5" y="136.9102">FeitianCardReader</text><line style="stroke: #A80036; stroke-width: 1.5;" x1="169.5" x2="304.5" y1="148" y2="148"/><rect fill="none" height="6" style="stroke: #C82930; stroke-width: 1.0;" width="6" x="176.5" y="157.418"/><text fill="#000000" font-family="sans-serif" font-size="11" lengthAdjust="spacingAndGlyphs" textLength="63" x="188.5" y="163.4189">name : String</text><rect fill="none" height="6" style="stroke: #C82930; stroke-width: 1.0;" width="6" x="176.5" y="171.2539"/><text fill="#000000" font-family="sans-serif" font-size="11" lengthAdjust="spacingAndGlyphs" text-decoration="underline" textLength="111" x="188.5" y="177.2549">PROTOCOL_T1 : String</text><line style="stroke: #A80036; stroke-width: 1.5;" x1="169.5" x2="304.5" y1="183.6719" y2="183.6719"/><ellipse cx="179.5" cy="196.0898" fill="#84BE84" rx="3" ry="3" style="stroke: #038048; stroke-width: 1.0;"/><text fill="#000000" font-family="sans-serif" font-size="11" lengthAdjust="spacingAndGlyphs" textLength="97" x="188.5" y="199.0908">FeitianCardReader()</text><ellipse cx="179.5" cy="209.9258" fill="#84BE84" rx="3" ry="3" style="stroke: #038048; stroke-width: 1.0;"/><text fill="#000000" font-family="sans-serif" font-size="11" lengthAdjust="spacingAndGlyphs" textLength="45" x="188.5" y="212.9268">initialize()</text><ellipse cx="179.5" cy="223.7617" fill="#84BE84" rx="3" ry="3" style="stroke: #038048; stroke-width: 1.0;"/><text fill="#000000" font-family="sans-serif" font-size="11" lengthAdjust="spacingAndGlyphs" textLength="59" x="188.5" y="226.7627">isInitialized()</text><ellipse cx="179.5" cy="237.5977" fill="#84BE84" rx="3" ry="3" style="stroke: #038048; stroke-width: 1.0;"/><text fill="#000000" font-family="sans-serif" font-size="11" lengthAdjust="spacingAndGlyphs" textLength="47" x="188.5" y="240.5986">connect()</text><ellipse cx="179.5" cy="251.4336" fill="#84BE84" rx="3" ry="3" style="stroke: #038048; stroke-width: 1.0;"/><text fill="#000000" font-family="sans-serif" font-size="11" lengthAdjust="spacingAndGlyphs" textLength="47" x="188.5" y="254.4346">connect()</text><ellipse cx="179.5" cy="265.2695" fill="#84BE84" rx="3" ry="3" style="stroke: #038048; stroke-width: 1.0;"/><text fill="#000000" font-family="sans-serif" font-size="11" lengthAdjust="spacingAndGlyphs" textLength="50" x="188.5" y="268.2705">getName()</text><ellipse cx="179.5" cy="279.1055" fill="#84BE84" rx="3" ry="3" style="stroke: #038048; stroke-width: 1.0;"/><text fill="#000000" font-family="sans-serif" font-size="11" lengthAdjust="spacingAndGlyphs" textLength="76" x="188.5" y="282.1064">isCardPresent()</text><ellipse cx="179.5" cy="292.9414" fill="#84BE84" rx="3" ry="3" style="stroke: #038048; stroke-width: 1.0;"/><text fill="#000000" font-family="sans-serif" font-size="11" lengthAdjust="spacingAndGlyphs" textLength="103" x="188.5" y="295.9424">waitForCardAbsent()</text><ellipse cx="179.5" cy="306.7773" fill="#84BE84" rx="3" ry="3" style="stroke: #038048; stroke-width: 1.0;"/><text fill="#000000" font-family="sans-serif" font-size="11" lengthAdjust="spacingAndGlyphs" textLength="105" x="188.5" y="309.7783">waitForCardPresent()</text><ellipse cx="179.5" cy="320.6133" fill="#84BE84" rx="3" ry="3" style="stroke: #038048; stroke-width: 1.0;"/><text fill="#000000" font-family="sans-serif" font-size="11" lengthAdjust="spacingAndGlyphs" textLength="50" x="188.5" y="323.6143">setName()</text><!--class ICardReader--><rect fill="#FEFECE" filter="url(#f1591vkr4s8nqg)" height="48" id="ICardReader" style="stroke: #A80036; stroke-width: 1.5;" width="103" x="185.5" y="8"/><ellipse cx="200.5" cy="24" fill="#ADD1B2" rx="11" ry="11" style="stroke: #A80036; stroke-width: 1.0;"/><path d="M202.5,20.5 Q202.7031,20 202.9375,19.75 Q203.1719,19.5 203.4375,19.5 Q203.9063,19.5 204.2031,19.7813 Q204.5,20.0625 204.5,20.7188 L204.5,22.2813 Q204.5,22.9375 204.2188,23.2188 Q203.9375,23.5 203.5,23.5 Q203.1094,23.5 202.8594,23.3281 Q202.6094,23.1563 202.5,22.7031 Q202.4531,22.3906 202.2813,22.2188 Q201.9688,21.8906 201.4063,21.6953 Q200.8438,21.5 200.2813,21.5 Q199.5781,21.5 198.9922,21.7813 Q198.4063,22.0625 197.9531,22.6875 Q197.5,23.3125 197.5,24.1719 L197.5,25.0938 Q197.5,26.125 198.3438,26.8125 Q199.1875,27.5 200.6875,27.5 Q201.5781,27.5 202.2031,27.2969 Q202.5625,27.1875 202.9688,26.8281 Q203.2344,26.625 203.375,26.5625 Q203.5156,26.5 203.6875,26.5 Q204.0156,26.5 204.2578,26.7578 Q204.5,27.0156 204.5,27.375 Q204.5,27.7188 204.1563,28.125 Q203.6563,28.7188 202.8594,29.0469 Q201.8125,29.5 200.5313,29.5 Q199.0313,29.5 197.8281,28.9063 Q196.8594,28.4375 196.1797,27.4219 Q195.5,26.4063 195.5,25.2031 L195.5,24.1094 Q195.5,22.8594 196.1016,21.7656 Q196.7031,20.6719 197.7578,20.0859 Q198.8125,19.5 200,19.5 Q200.7188,19.5 201.3438,19.75 Q201.9688,20 202.5,20.5 Z "/><text fill="#000000" font-family="sans-serif" font-size="12" lengthAdjust="spacingAndGlyphs" textLength="71" x="214.5" y="28.9102">ICardReader</text><line style="stroke: #A80036; stroke-width: 1.5;" x1="186.5" x2="287.5" y1="40" y2="40"/><line style="stroke: #A80036; stroke-width: 1.5;" x1="186.5" x2="287.5" y1="48" y2="48"/><!--link ICardReader to FeitianCardReader--><path d="M237,76.339 C237,88.303 237,101.834 237,115.709 " fill="none" id="ICardReader-FeitianCardReader" style="stroke: #A80036; stroke-width: 1.0;"/><polygon fill="none" points="230,76.175,237,56.175,244,76.175,230,76.175" style="stroke: #A80036; stroke-width: 1.0;"/><!--
@startuml

package de.gematik.ti.cardreader.provider.bluetooth.feitian.entities {
      class FeitianCardReader {
          - name : String
          {static} - PROTOCOL_T1 : String
          + FeitianCardReader()
          + initialize()
          + isInitialized()
          + connect()
          + connect()
          + getName()
          + isCardPresent()
          + waitForCardAbsent()
          + waitForCardPresent()
          + setName()
      }
    }

    FeitianCardReader -up-|> ICardReader


@enduml

PlantUML version 1.2019.06(Fri May 24 19:10:25 CEST 2019)
(APACHE source distribution)
Java Runtime: OpenJDK Runtime Environment
JVM: OpenJDK 64-Bit Server VM
Java Version: 1.8.0_202-release-1483-b03
Operating System: Windows 7
OS Version: 6.1
Default Encoding: Cp1252
Language: de
Country: DE
--></g></svg>