<?xml version="1.0" encoding="UTF-8" standalone="no"?><svg xmlns="http://www.w3.org/2000/svg" xmlns:xlink="http://www.w3.org/1999/xlink" contentScriptType="application/ecmascript" contentStyleType="text/css" height="261px" preserveAspectRatio="none" style="width:471px;height:261px;" version="1.1" viewBox="0 0 471 261" width="471px" zoomAndPan="magnify"><defs><filter height="300%" id="ftped0dw4qrzg" width="300%" x="-1" y="-1"><feGaussianBlur result="blurOut" stdDeviation="2.0"/><feColorMatrix in="blurOut" result="blurOut2" type="matrix" values="0 0 0 0 0 0 0 0 0 0 0 0 0 0 0 0 0 0 .4 0"/><feOffset dx="4.0" dy="4.0" in="blurOut2" result="blurOut3"/><feBlend in="SourceGraphic" in2="blurOut3" mode="normal"/></filter></defs><g><!--cluster de.gematik.ti.cardreader.provider.bluetooth.feitian.control--><polygon fill="#FFFFFF" filter="url(#ftped0dw4qrzg)" points="22,24,439,24,446,47.6094,449,47.6094,449,249,22,249,22,24" style="stroke: #000000; stroke-width: 1.5;"/><line style="stroke: #000000; stroke-width: 1.5;" x1="22" x2="446" y1="47.6094" y2="47.6094"/><text fill="#000000" font-family="sans-serif" font-size="14" font-weight="bold" lengthAdjust="spacingAndGlyphs" textLength="411" x="26" y="40.5332">de.gematik.ti.cardreader.provider.bluetooth.feitian.control</text><!--class FeitianConnector--><rect fill="#FEFECE" filter="url(#ftped0dw4qrzg)" height="172.5234" id="FeitianConnector" style="stroke: #A80036; stroke-width: 1.5;" width="175" x="147.5" y="60"/><ellipse cx="184.55" cy="76" fill="#ADD1B2" rx="11" ry="11" style="stroke: #A80036; stroke-width: 1.0;"/><path d="M186.55,72.5 Q186.7531,72 186.9875,71.75 Q187.2219,71.5 187.4875,71.5 Q187.9563,71.5 188.2531,71.7813 Q188.55,72.0625 188.55,72.7188 L188.55,74.2813 Q188.55,74.9375 188.2688,75.2188 Q187.9875,75.5 187.55,75.5 Q187.1594,75.5 186.9094,75.3281 Q186.6594,75.1563 186.55,74.7031 Q186.5031,74.3906 186.3313,74.2188 Q186.0188,73.8906 185.4563,73.6953 Q184.8938,73.5 184.3313,73.5 Q183.6281,73.5 183.0422,73.7813 Q182.4563,74.0625 182.0031,74.6875 Q181.55,75.3125 181.55,76.1719 L181.55,77.0938 Q181.55,78.125 182.3938,78.8125 Q183.2375,79.5 184.7375,79.5 Q185.6281,79.5 186.2531,79.2969 Q186.6125,79.1875 187.0188,78.8281 Q187.2844,78.625 187.425,78.5625 Q187.5656,78.5 187.7375,78.5 Q188.0656,78.5 188.3078,78.7578 Q188.55,79.0156 188.55,79.375 Q188.55,79.7188 188.2063,80.125 Q187.7063,80.7188 186.9094,81.0469 Q185.8625,81.5 184.5813,81.5 Q183.0813,81.5 181.8781,80.9063 Q180.9094,80.4375 180.2297,79.4219 Q179.55,78.4063 179.55,77.2031 L179.55,76.1094 Q179.55,74.8594 180.1516,73.7656 Q180.7531,72.6719 181.8078,72.0859 Q182.8625,71.5 184.05,71.5 Q184.7688,71.5 185.3938,71.75 Q186.0188,72 186.55,72.5 Z "/><text fill="#000000" font-family="sans-serif" font-size="12" lengthAdjust="spacingAndGlyphs" textLength="94" x="203.45" y="80.9102">FeitianConnector</text><line style="stroke: #A80036; stroke-width: 1.5;" x1="148.5" x2="321.5" y1="92" y2="92"/><rect fill="none" height="6" style="stroke: #C82930; stroke-width: 1.0;" width="6" x="155.5" y="101.418"/><text fill="#000000" font-family="sans-serif" font-size="11" lengthAdjust="spacingAndGlyphs" text-decoration="underline" textLength="65" x="167.5" y="107.4189">LOG : Logger</text><rect fill="none" height="6" style="stroke: #C82930; stroke-width: 1.0;" width="6" x="155.5" y="115.2539"/><text fill="#000000" font-family="sans-serif" font-size="11" lengthAdjust="spacingAndGlyphs" textLength="128" x="167.5" y="121.2549">mSocket : BluetoothSocket</text><rect fill="none" height="6" style="stroke: #C82930; stroke-width: 1.0;" width="6" x="155.5" y="129.0898"/><text fill="#000000" font-family="sans-serif" font-size="11" lengthAdjust="spacingAndGlyphs" textLength="123" x="167.5" y="135.0908">inputStream : InputStream</text><rect fill="none" height="6" style="stroke: #C82930; stroke-width: 1.0;" width="6" x="155.5" y="142.9258"/><text fill="#000000" font-family="sans-serif" font-size="11" lengthAdjust="spacingAndGlyphs" textLength="139" x="167.5" y="148.9268">outputStream : OutputStream</text><rect fill="none" height="6" style="stroke: #C82930; stroke-width: 1.0;" width="6" x="155.5" y="156.7617"/><text fill="#000000" font-family="sans-serif" font-size="11" lengthAdjust="spacingAndGlyphs" textLength="149" x="167.5" y="162.7627">feitianDevice : BluetoothDevice</text><line style="stroke: #A80036; stroke-width: 1.5;" x1="148.5" x2="321.5" y1="169.1797" y2="169.1797"/><ellipse cx="158.5" cy="181.5977" fill="#84BE84" rx="3" ry="3" style="stroke: #038048; stroke-width: 1.0;"/><text fill="#000000" font-family="sans-serif" font-size="11" lengthAdjust="spacingAndGlyphs" textLength="89" x="167.5" y="184.5986">FeitianConnector()</text><ellipse cx="158.5" cy="195.4336" fill="#84BE84" rx="3" ry="3" style="stroke: #038048; stroke-width: 1.0;"/><text fill="#000000" font-family="sans-serif" font-size="11" lengthAdjust="spacingAndGlyphs" textLength="24" x="167.5" y="198.4346">run()</text><rect fill="#F24D5C" height="6" style="stroke: #C82930; stroke-width: 1.0;" width="6" x="155.5" y="206.2695"/><text fill="#000000" font-family="sans-serif" font-size="11" lengthAdjust="spacingAndGlyphs" textLength="72" x="167.5" y="212.2705">createSocket()</text><ellipse cx="158.5" cy="223.1055" fill="#84BE84" rx="3" ry="3" style="stroke: #038048; stroke-width: 1.0;"/><text fill="#000000" font-family="sans-serif" font-size="11" lengthAdjust="spacingAndGlyphs" textLength="77" x="167.5" y="226.1064">getFeitianCard()</text><!--
@startuml

package de.gematik.ti.cardreader.provider.bluetooth.feitian.control {
      class FeitianConnector {
          {static} - LOG : Logger
          - mSocket : BluetoothSocket
          - inputStream : InputStream
          - outputStream : OutputStream
          - feitianDevice : BluetoothDevice
          + FeitianConnector()
          + run()
          - createSocket()
          + getFeitianCard()
      }
    }

@enduml

PlantUML version 1.2019.06(Fri May 24 19:10:25 CEST 2019)
(APACHE source distribution)
Java Runtime: OpenJDK Runtime Environment
JVM: OpenJDK 64-Bit Server VM
Java Version: 1.8.0_202-release-1483-b03
Operating System: Windows 7
OS Version: 6.1
Default Encoding: Cp1252
Language: de
Country: DE
--></g></svg>