<?xml version="1.0" encoding="UTF-8" standalone="no"?><svg xmlns="http://www.w3.org/2000/svg" xmlns:xlink="http://www.w3.org/1999/xlink" contentScriptType="application/ecmascript" contentStyleType="text/css" height="247px" preserveAspectRatio="none" style="width:471px;height:247px;" version="1.1" viewBox="0 0 471 247" width="471px" zoomAndPan="magnify"><defs><filter height="300%" id="f1fatxvgbscu7w" width="300%" x="-1" y="-1"><feGaussianBlur result="blurOut" stdDeviation="2.0"/><feColorMatrix in="blurOut" result="blurOut2" type="matrix" values="0 0 0 0 0 0 0 0 0 0 0 0 0 0 0 0 0 0 .4 0"/><feOffset dx="4.0" dy="4.0" in="blurOut2" result="blurOut3"/><feBlend in="SourceGraphic" in2="blurOut3" mode="normal"/></filter></defs><g><!--cluster de.gematik.ti.cardreader.provider.bluetooth.feitian.control--><polygon fill="#FFFFFF" filter="url(#f1fatxvgbscu7w)" points="22,80,439,80,446,103.6094,449,103.6094,449,235,22,235,22,80" style="stroke: #000000; stroke-width: 1.5;"/><line style="stroke: #000000; stroke-width: 1.5;" x1="22" x2="446" y1="103.6094" y2="103.6094"/><text fill="#000000" font-family="sans-serif" font-size="14" font-weight="bold" lengthAdjust="spacingAndGlyphs" textLength="411" x="26" y="96.5332">de.gematik.ti.cardreader.provider.bluetooth.feitian.control</text><!--class FeitianCardReaderProvider--><rect fill="#FEFECE" filter="url(#f1fatxvgbscu7w)" height="103.3438" id="FeitianCardReaderProvider" style="stroke: #A80036; stroke-width: 1.5;" width="215" x="127.5" y="116"/><ellipse cx="157.35" cy="132" fill="#ADD1B2" rx="11" ry="11" style="stroke: #A80036; stroke-width: 1.0;"/><path d="M159.35,128.5 Q159.5531,128 159.7875,127.75 Q160.0219,127.5 160.2875,127.5 Q160.7563,127.5 161.0531,127.7813 Q161.35,128.0625 161.35,128.7188 L161.35,130.2813 Q161.35,130.9375 161.0688,131.2188 Q160.7875,131.5 160.35,131.5 Q159.9594,131.5 159.7094,131.3281 Q159.4594,131.1563 159.35,130.7031 Q159.3031,130.3906 159.1313,130.2188 Q158.8188,129.8906 158.2563,129.6953 Q157.6938,129.5 157.1313,129.5 Q156.4281,129.5 155.8422,129.7813 Q155.2563,130.0625 154.8031,130.6875 Q154.35,131.3125 154.35,132.1719 L154.35,133.0938 Q154.35,134.125 155.1938,134.8125 Q156.0375,135.5 157.5375,135.5 Q158.4281,135.5 159.0531,135.2969 Q159.4125,135.1875 159.8188,134.8281 Q160.0844,134.625 160.225,134.5625 Q160.3656,134.5 160.5375,134.5 Q160.8656,134.5 161.1078,134.7578 Q161.35,135.0156 161.35,135.375 Q161.35,135.7188 161.0063,136.125 Q160.5063,136.7188 159.7094,137.0469 Q158.6625,137.5 157.3813,137.5 Q155.8813,137.5 154.6781,136.9063 Q153.7094,136.4375 153.0297,135.4219 Q152.35,134.4063 152.35,133.2031 L152.35,132.1094 Q152.35,130.8594 152.9516,129.7656 Q153.5531,128.6719 154.6078,128.0859 Q155.6625,127.5 156.85,127.5 Q157.5688,127.5 158.1938,127.75 Q158.8188,128 159.35,128.5 Z "/><text fill="#000000" font-family="sans-serif" font-size="12" lengthAdjust="spacingAndGlyphs" textLength="150" x="174.65" y="136.9102">FeitianCardReaderProvider</text><line style="stroke: #A80036; stroke-width: 1.5;" x1="128.5" x2="341.5" y1="148" y2="148"/><rect fill="none" height="6" style="stroke: #C82930; stroke-width: 1.0;" width="6" x="135.5" y="157.418"/><text fill="#000000" font-family="sans-serif" font-size="11" lengthAdjust="spacingAndGlyphs" textLength="189" x="147.5" y="163.4189">providerDescriptor : ProviderDescriptor</text><line style="stroke: #A80036; stroke-width: 1.5;" x1="128.5" x2="341.5" y1="169.8359" y2="169.8359"/><ellipse cx="138.5" cy="182.2539" fill="#84BE84" rx="3" ry="3" style="stroke: #038048; stroke-width: 1.0;"/><text fill="#000000" font-family="sans-serif" font-size="11" lengthAdjust="spacingAndGlyphs" textLength="137" x="147.5" y="185.2549">FeitianCardReaderProvider()</text><ellipse cx="138.5" cy="196.0898" fill="#84BE84" rx="3" ry="3" style="stroke: #038048; stroke-width: 1.0;"/><text fill="#000000" font-family="sans-serif" font-size="11" lengthAdjust="spacingAndGlyphs" textLength="127" x="147.5" y="199.0908">getCardReaderController()</text><ellipse cx="138.5" cy="209.9258" fill="#84BE84" rx="3" ry="3" style="stroke: #038048; stroke-width: 1.0;"/><text fill="#000000" font-family="sans-serif" font-size="11" lengthAdjust="spacingAndGlyphs" textLength="73" x="147.5" y="212.9268">getDescriptor()</text><!--class ICardReaderControllerProvider--><rect fill="#FEFECE" filter="url(#f1fatxvgbscu7w)" height="48" id="ICardReaderControllerProvider" style="stroke: #A80036; stroke-width: 1.5;" width="202" x="134" y="8"/><ellipse cx="149" cy="24" fill="#ADD1B2" rx="11" ry="11" style="stroke: #A80036; stroke-width: 1.0;"/><path d="M151,20.5 Q151.2031,20 151.4375,19.75 Q151.6719,19.5 151.9375,19.5 Q152.4063,19.5 152.7031,19.7813 Q153,20.0625 153,20.7188 L153,22.2813 Q153,22.9375 152.7188,23.2188 Q152.4375,23.5 152,23.5 Q151.6094,23.5 151.3594,23.3281 Q151.1094,23.1563 151,22.7031 Q150.9531,22.3906 150.7813,22.2188 Q150.4688,21.8906 149.9063,21.6953 Q149.3438,21.5 148.7813,21.5 Q148.0781,21.5 147.4922,21.7813 Q146.9063,22.0625 146.4531,22.6875 Q146,23.3125 146,24.1719 L146,25.0938 Q146,26.125 146.8438,26.8125 Q147.6875,27.5 149.1875,27.5 Q150.0781,27.5 150.7031,27.2969 Q151.0625,27.1875 151.4688,26.8281 Q151.7344,26.625 151.875,26.5625 Q152.0156,26.5 152.1875,26.5 Q152.5156,26.5 152.7578,26.7578 Q153,27.0156 153,27.375 Q153,27.7188 152.6563,28.125 Q152.1563,28.7188 151.3594,29.0469 Q150.3125,29.5 149.0313,29.5 Q147.5313,29.5 146.3281,28.9063 Q145.3594,28.4375 144.6797,27.4219 Q144,26.4063 144,25.2031 L144,24.1094 Q144,22.8594 144.6016,21.7656 Q145.2031,20.6719 146.2578,20.0859 Q147.3125,19.5 148.5,19.5 Q149.2188,19.5 149.8438,19.75 Q150.4688,20 151,20.5 Z "/><text fill="#000000" font-family="sans-serif" font-size="12" lengthAdjust="spacingAndGlyphs" textLength="170" x="163" y="28.9102">ICardReaderControllerProvider</text><line style="stroke: #A80036; stroke-width: 1.5;" x1="135" x2="335" y1="40" y2="40"/><line style="stroke: #A80036; stroke-width: 1.5;" x1="135" x2="335" y1="48" y2="48"/><!--link ICardReaderControllerProvider to FeitianCardReaderProvider--><path d="M235,76.463 C235,89.043 235,102.885 235,115.863 " fill="none" id="ICardReaderControllerProvider-FeitianCardReaderProvider" style="stroke: #A80036; stroke-width: 1.0;"/><polygon fill="none" points="228,76.254,235,56.254,242,76.254,228,76.254" style="stroke: #A80036; stroke-width: 1.0;"/><!--
@startuml

package de.gematik.ti.cardreader.provider.bluetooth.feitian.control {
      class FeitianCardReaderProvider {
          - providerDescriptor : ProviderDescriptor
          + FeitianCardReaderProvider()
          + getCardReaderController()
          + getDescriptor()
      }
    }

  FeitianCardReaderProvider -up-|> ICardReaderControllerProvider

@enduml

PlantUML version 1.2019.06(Fri May 24 19:10:25 CEST 2019)
(APACHE source distribution)
Java Runtime: OpenJDK Runtime Environment
JVM: OpenJDK 64-Bit Server VM
Java Version: 1.8.0_202-release-1483-b03
Operating System: Windows 7
OS Version: 6.1
Default Encoding: Cp1252
Language: de
Country: DE
--></g></svg>