<?xml version="1.0" encoding="UTF-8" standalone="no"?><svg xmlns="http://www.w3.org/2000/svg" xmlns:xlink="http://www.w3.org/1999/xlink" contentScriptType="application/ecmascript" contentStyleType="text/css" height="247px" preserveAspectRatio="none" style="width:471px;height:247px;" version="1.1" viewBox="0 0 471 247" width="471px" zoomAndPan="magnify"><defs><filter height="300%" id="fr74lm1smmxw" width="300%" x="-1" y="-1"><feGaussianBlur result="blurOut" stdDeviation="2.0"/><feColorMatrix in="blurOut" result="blurOut2" type="matrix" values="0 0 0 0 0 0 0 0 0 0 0 0 0 0 0 0 0 0 .4 0"/><feOffset dx="4.0" dy="4.0" in="blurOut2" result="blurOut3"/><feBlend in="SourceGraphic" in2="blurOut3" mode="normal"/></filter></defs><g><!--cluster de.gematik.ti.cardreader.provider.bluetooth.feitian.control--><polygon fill="#FFFFFF" filter="url(#fr74lm1smmxw)" points="22,80,439,80,446,103.6094,449,103.6094,449,235,22,235,22,80" style="stroke: #000000; stroke-width: 1.5;"/><line style="stroke: #000000; stroke-width: 1.5;" x1="22" x2="446" y1="103.6094" y2="103.6094"/><text fill="#000000" font-family="sans-serif" font-size="14" font-weight="bold" lengthAdjust="spacingAndGlyphs" textLength="411" x="26" y="96.5332">de.gematik.ti.cardreader.provider.bluetooth.feitian.control</text><!--class FeitianBluetoothReceiver--><rect fill="#FEFECE" filter="url(#fr74lm1smmxw)" height="103.3438" id="FeitianBluetoothReceiver" style="stroke: #A80036; stroke-width: 1.5;" width="169" x="150.5" y="116"/><ellipse cx="165.5" cy="132" fill="#ADD1B2" rx="11" ry="11" style="stroke: #A80036; stroke-width: 1.0;"/><path d="M167.5,128.5 Q167.7031,128 167.9375,127.75 Q168.1719,127.5 168.4375,127.5 Q168.9063,127.5 169.2031,127.7813 Q169.5,128.0625 169.5,128.7188 L169.5,130.2813 Q169.5,130.9375 169.2188,131.2188 Q168.9375,131.5 168.5,131.5 Q168.1094,131.5 167.8594,131.3281 Q167.6094,131.1563 167.5,130.7031 Q167.4531,130.3906 167.2813,130.2188 Q166.9688,129.8906 166.4063,129.6953 Q165.8438,129.5 165.2813,129.5 Q164.5781,129.5 163.9922,129.7813 Q163.4063,130.0625 162.9531,130.6875 Q162.5,131.3125 162.5,132.1719 L162.5,133.0938 Q162.5,134.125 163.3438,134.8125 Q164.1875,135.5 165.6875,135.5 Q166.5781,135.5 167.2031,135.2969 Q167.5625,135.1875 167.9688,134.8281 Q168.2344,134.625 168.375,134.5625 Q168.5156,134.5 168.6875,134.5 Q169.0156,134.5 169.2578,134.7578 Q169.5,135.0156 169.5,135.375 Q169.5,135.7188 169.1563,136.125 Q168.6563,136.7188 167.8594,137.0469 Q166.8125,137.5 165.5313,137.5 Q164.0313,137.5 162.8281,136.9063 Q161.8594,136.4375 161.1797,135.4219 Q160.5,134.4063 160.5,133.2031 L160.5,132.1094 Q160.5,130.8594 161.1016,129.7656 Q161.7031,128.6719 162.7578,128.0859 Q163.8125,127.5 165,127.5 Q165.7188,127.5 166.3438,127.75 Q166.9688,128 167.5,128.5 Z "/><text fill="#000000" font-family="sans-serif" font-size="12" lengthAdjust="spacingAndGlyphs" textLength="137" x="179.5" y="136.9102">FeitianBluetoothReceiver</text><line style="stroke: #A80036; stroke-width: 1.5;" x1="151.5" x2="318.5" y1="148" y2="148"/><rect fill="none" height="6" style="stroke: #C82930; stroke-width: 1.0;" width="6" x="158.5" y="157.418"/><text fill="#000000" font-family="sans-serif" font-size="11" lengthAdjust="spacingAndGlyphs" text-decoration="underline" textLength="65" x="170.5" y="163.4189">LOG : Logger</text><line style="stroke: #A80036; stroke-width: 1.5;" x1="151.5" x2="318.5" y1="169.8359" y2="169.8359"/><ellipse cx="161.5" cy="182.2539" fill="#84BE84" rx="3" ry="3" style="stroke: #038048; stroke-width: 1.0;"/><text fill="#000000" font-family="sans-serif" font-size="11" lengthAdjust="spacingAndGlyphs" textLength="59" x="170.5" y="185.2549">onReceive()</text><rect fill="#F24D5C" height="6" style="stroke: #C82930; stroke-width: 1.0;" width="6" x="158.5" y="193.0898"/><text fill="#000000" font-family="sans-serif" font-size="11" lengthAdjust="spacingAndGlyphs" textLength="99" x="170.5" y="199.0908">onDeviceDetached()</text><rect fill="#F24D5C" height="6" style="stroke: #C82930; stroke-width: 1.0;" width="6" x="158.5" y="206.9258"/><text fill="#000000" font-family="sans-serif" font-size="11" lengthAdjust="spacingAndGlyphs" textLength="97" x="170.5" y="212.9268">onDeviceAttached()</text><!--class BroadcastReceiver--><rect fill="#FEFECE" filter="url(#fr74lm1smmxw)" height="48" id="BroadcastReceiver" style="stroke: #A80036; stroke-width: 1.5;" width="136" x="167" y="8"/><ellipse cx="182" cy="24" fill="#ADD1B2" rx="11" ry="11" style="stroke: #A80036; stroke-width: 1.0;"/><path d="M184,20.5 Q184.2031,20 184.4375,19.75 Q184.6719,19.5 184.9375,19.5 Q185.4063,19.5 185.7031,19.7813 Q186,20.0625 186,20.7188 L186,22.2813 Q186,22.9375 185.7188,23.2188 Q185.4375,23.5 185,23.5 Q184.6094,23.5 184.3594,23.3281 Q184.1094,23.1563 184,22.7031 Q183.9531,22.3906 183.7813,22.2188 Q183.4688,21.8906 182.9063,21.6953 Q182.3438,21.5 181.7813,21.5 Q181.0781,21.5 180.4922,21.7813 Q179.9063,22.0625 179.4531,22.6875 Q179,23.3125 179,24.1719 L179,25.0938 Q179,26.125 179.8438,26.8125 Q180.6875,27.5 182.1875,27.5 Q183.0781,27.5 183.7031,27.2969 Q184.0625,27.1875 184.4688,26.8281 Q184.7344,26.625 184.875,26.5625 Q185.0156,26.5 185.1875,26.5 Q185.5156,26.5 185.7578,26.7578 Q186,27.0156 186,27.375 Q186,27.7188 185.6563,28.125 Q185.1563,28.7188 184.3594,29.0469 Q183.3125,29.5 182.0313,29.5 Q180.5313,29.5 179.3281,28.9063 Q178.3594,28.4375 177.6797,27.4219 Q177,26.4063 177,25.2031 L177,24.1094 Q177,22.8594 177.6016,21.7656 Q178.2031,20.6719 179.2578,20.0859 Q180.3125,19.5 181.5,19.5 Q182.2188,19.5 182.8438,19.75 Q183.4688,20 184,20.5 Z "/><text fill="#000000" font-family="sans-serif" font-size="12" lengthAdjust="spacingAndGlyphs" textLength="104" x="196" y="28.9102">BroadcastReceiver</text><line style="stroke: #A80036; stroke-width: 1.5;" x1="168" x2="302" y1="40" y2="40"/><line style="stroke: #A80036; stroke-width: 1.5;" x1="168" x2="302" y1="48" y2="48"/><!--link BroadcastReceiver to FeitianBluetoothReceiver--><path d="M235,76.463 C235,89.043 235,102.885 235,115.863 " fill="none" id="BroadcastReceiver-FeitianBluetoothReceiver" style="stroke: #A80036; stroke-width: 1.0;"/><polygon fill="none" points="228,76.254,235,56.254,242,76.254,228,76.254" style="stroke: #A80036; stroke-width: 1.0;"/><!--
@startuml

package de.gematik.ti.cardreader.provider.bluetooth.feitian.control {
      class FeitianBluetoothReceiver {
          {static} - LOG : Logger
          + onReceive()
          - onDeviceDetached()
          - onDeviceAttached()
      }
    }

   FeitianBluetoothReceiver -up-|> BroadcastReceiver


@enduml

PlantUML version 1.2019.06(Fri May 24 19:10:25 CEST 2019)
(APACHE source distribution)
Java Runtime: OpenJDK Runtime Environment
JVM: OpenJDK 64-Bit Server VM
Java Version: 1.8.0_202-release-1483-b03
Operating System: Windows 7
OS Version: 6.1
Default Encoding: Cp1252
Language: de
Country: DE
--></g></svg>