<?xml version="1.0" encoding="UTF-8" standalone="no"?><svg xmlns="http://www.w3.org/2000/svg" xmlns:xlink="http://www.w3.org/1999/xlink" contentScriptType="application/ecmascript" contentStyleType="text/css" height="400px" preserveAspectRatio="none" style="width:474px;height:400px;" version="1.1" viewBox="0 0 474 400" width="474px" zoomAndPan="magnify"><defs><filter height="300%" id="fc4n3flzlkls3" width="300%" x="-1" y="-1"><feGaussianBlur result="blurOut" stdDeviation="2.0"/><feColorMatrix in="blurOut" result="blurOut2" type="matrix" values="0 0 0 0 0 0 0 0 0 0 0 0 0 0 0 0 0 0 .4 0"/><feOffset dx="4.0" dy="4.0" in="blurOut2" result="blurOut3"/><feBlend in="SourceGraphic" in2="blurOut3" mode="normal"/></filter></defs><g><!--cluster de.gematik.ti.cardreader.provider.bluetooth.feitian.entities--><polygon fill="#FFFFFF" filter="url(#fc4n3flzlkls3)" points="22,80,442,80,449,103.6094,452,103.6094,452,388,22,388,22,80" style="stroke: #000000; stroke-width: 1.5;"/><line style="stroke: #000000; stroke-width: 1.5;" x1="22" x2="449" y1="103.6094" y2="103.6094"/><text fill="#000000" font-family="sans-serif" font-size="14" font-weight="bold" lengthAdjust="spacingAndGlyphs" textLength="414" x="26" y="96.5332">de.gematik.ti.cardreader.provider.bluetooth.feitian.entities</text><!--class FeitianCardChannel--><rect fill="#FEFECE" filter="url(#fc4n3flzlkls3)" height="255.5391" id="FeitianCardChannel" style="stroke: #A80036; stroke-width: 1.5;" width="308" x="83" y="116"/><ellipse cx="177.25" cy="132" fill="#ADD1B2" rx="11" ry="11" style="stroke: #A80036; stroke-width: 1.0;"/><path d="M179.25,128.5 Q179.4531,128 179.6875,127.75 Q179.9219,127.5 180.1875,127.5 Q180.6563,127.5 180.9531,127.7813 Q181.25,128.0625 181.25,128.7188 L181.25,130.2813 Q181.25,130.9375 180.9688,131.2188 Q180.6875,131.5 180.25,131.5 Q179.8594,131.5 179.6094,131.3281 Q179.3594,131.1563 179.25,130.7031 Q179.2031,130.3906 179.0313,130.2188 Q178.7188,129.8906 178.1563,129.6953 Q177.5938,129.5 177.0313,129.5 Q176.3281,129.5 175.7422,129.7813 Q175.1563,130.0625 174.7031,130.6875 Q174.25,131.3125 174.25,132.1719 L174.25,133.0938 Q174.25,134.125 175.0938,134.8125 Q175.9375,135.5 177.4375,135.5 Q178.3281,135.5 178.9531,135.2969 Q179.3125,135.1875 179.7188,134.8281 Q179.9844,134.625 180.125,134.5625 Q180.2656,134.5 180.4375,134.5 Q180.7656,134.5 181.0078,134.7578 Q181.25,135.0156 181.25,135.375 Q181.25,135.7188 180.9063,136.125 Q180.4063,136.7188 179.6094,137.0469 Q178.5625,137.5 177.2813,137.5 Q175.7813,137.5 174.5781,136.9063 Q173.6094,136.4375 172.9297,135.4219 Q172.25,134.4063 172.25,133.2031 L172.25,132.1094 Q172.25,130.8594 172.8516,129.7656 Q173.4531,128.6719 174.5078,128.0859 Q175.5625,127.5 176.75,127.5 Q177.4688,127.5 178.0938,127.75 Q178.7188,128 179.25,128.5 Z "/><text fill="#000000" font-family="sans-serif" font-size="12" lengthAdjust="spacingAndGlyphs" textLength="111" x="197.75" y="136.9102">FeitianCardChannel</text><line style="stroke: #A80036; stroke-width: 1.5;" x1="84" x2="390" y1="148" y2="148"/><rect fill="none" height="6" style="stroke: #C82930; stroke-width: 1.0;" width="6" x="91" y="157.418"/><text fill="#000000" font-family="sans-serif" font-size="11" lengthAdjust="spacingAndGlyphs" textLength="71" x="103" y="163.4189">channelNo : int</text><rect fill="none" height="6" style="stroke: #C82930; stroke-width: 1.0;" width="6" x="91" y="171.2539"/><text fill="#000000" font-family="sans-serif" font-size="11" lengthAdjust="spacingAndGlyphs" text-decoration="underline" textLength="282" x="103" y="177.2549">MANAGE_CHANNEL_COMMAND_CLOSE : CommandAPDU</text><rect fill="none" height="6" style="stroke: #C82930; stroke-width: 1.0;" width="6" x="91" y="185.0898"/><text fill="#000000" font-family="sans-serif" font-size="11" lengthAdjust="spacingAndGlyphs" text-decoration="underline" textLength="128" x="103" y="191.0908">RESPONSE_SUCCESS : int</text><rect fill="none" height="6" style="stroke: #C82930; stroke-width: 1.0;" width="6" x="91" y="198.9258"/><text fill="#000000" font-family="sans-serif" font-size="11" lengthAdjust="spacingAndGlyphs" text-decoration="underline" textLength="187" x="103" y="204.9268">LOW_CHANNEL_NUMBER_VALUE : int</text><rect fill="none" height="6" style="stroke: #C82930; stroke-width: 1.0;" width="6" x="91" y="212.7617"/><text fill="#000000" font-family="sans-serif" font-size="11" lengthAdjust="spacingAndGlyphs" text-decoration="underline" textLength="159" x="103" y="218.7627">MAX_CHANNEL_NO_VALUE : int</text><rect fill="none" height="6" style="stroke: #C82930; stroke-width: 1.0;" width="6" x="91" y="226.5977"/><text fill="#000000" font-family="sans-serif" font-size="11" lengthAdjust="spacingAndGlyphs" textLength="118" x="103" y="232.5986">channelClosed : boolean</text><line style="stroke: #A80036; stroke-width: 1.5;" x1="84" x2="390" y1="239.0156" y2="239.0156"/><ellipse cx="94" cy="251.4336" fill="#84BE84" rx="3" ry="3" style="stroke: #038048; stroke-width: 1.0;"/><text fill="#000000" font-family="sans-serif" font-size="11" lengthAdjust="spacingAndGlyphs" textLength="101" x="103" y="254.4346">FeitianCardChannel()</text><ellipse cx="94" cy="265.2695" fill="#84BE84" rx="3" ry="3" style="stroke: #038048; stroke-width: 1.0;"/><text fill="#000000" font-family="sans-serif" font-size="11" lengthAdjust="spacingAndGlyphs" textLength="101" x="103" y="268.2705">FeitianCardChannel()</text><ellipse cx="94" cy="279.1055" fill="#84BE84" rx="3" ry="3" style="stroke: #038048; stroke-width: 1.0;"/><text fill="#000000" font-family="sans-serif" font-size="11" lengthAdjust="spacingAndGlyphs" textLength="46" x="103" y="282.1064">getCard()</text><ellipse cx="94" cy="292.9414" fill="#84BE84" rx="3" ry="3" style="stroke: #038048; stroke-width: 1.0;"/><text fill="#000000" font-family="sans-serif" font-size="11" lengthAdjust="spacingAndGlyphs" textLength="99" x="103" y="295.9424">getChannelNumber()</text><ellipse cx="94" cy="306.7773" fill="#84BE84" rx="3" ry="3" style="stroke: #038048; stroke-width: 1.0;"/><text fill="#000000" font-family="sans-serif" font-size="11" lengthAdjust="spacingAndGlyphs" textLength="46" x="103" y="309.7783">transmit()</text><ellipse cx="94" cy="320.6133" fill="#84BE84" rx="3" ry="3" style="stroke: #038048; stroke-width: 1.0;"/><text fill="#000000" font-family="sans-serif" font-size="11" lengthAdjust="spacingAndGlyphs" textLength="46" x="103" y="323.6143">transmit()</text><ellipse cx="94" cy="334.4492" fill="#84BE84" rx="3" ry="3" style="stroke: #038048; stroke-width: 1.0;"/><text fill="#000000" font-family="sans-serif" font-size="11" lengthAdjust="spacingAndGlyphs" textLength="34" x="103" y="337.4502">close()</text><rect fill="#F24D5C" height="6" style="stroke: #C82930; stroke-width: 1.0;" width="6" x="91" y="345.2852"/><text fill="#000000" font-family="sans-serif" font-size="11" lengthAdjust="spacingAndGlyphs" textLength="176" x="103" y="351.2861">modifyCommandForLogicalChannel()</text><rect fill="#F24D5C" height="6" style="stroke: #C82930; stroke-width: 1.0;" width="6" x="91" y="359.1211"/><text fill="#000000" font-family="sans-serif" font-size="11" lengthAdjust="spacingAndGlyphs" textLength="109" x="103" y="365.1221">checkChannelClosed()</text><!--class CardChannel--><rect fill="#FEFECE" filter="url(#fc4n3flzlkls3)" height="48" id="CardChannel" style="stroke: #A80036; stroke-width: 1.5;" width="106" x="184" y="8"/><ellipse cx="199" cy="24" fill="#ADD1B2" rx="11" ry="11" style="stroke: #A80036; stroke-width: 1.0;"/><path d="M201,20.5 Q201.2031,20 201.4375,19.75 Q201.6719,19.5 201.9375,19.5 Q202.4063,19.5 202.7031,19.7813 Q203,20.0625 203,20.7188 L203,22.2813 Q203,22.9375 202.7188,23.2188 Q202.4375,23.5 202,23.5 Q201.6094,23.5 201.3594,23.3281 Q201.1094,23.1563 201,22.7031 Q200.9531,22.3906 200.7813,22.2188 Q200.4688,21.8906 199.9063,21.6953 Q199.3438,21.5 198.7813,21.5 Q198.0781,21.5 197.4922,21.7813 Q196.9063,22.0625 196.4531,22.6875 Q196,23.3125 196,24.1719 L196,25.0938 Q196,26.125 196.8438,26.8125 Q197.6875,27.5 199.1875,27.5 Q200.0781,27.5 200.7031,27.2969 Q201.0625,27.1875 201.4688,26.8281 Q201.7344,26.625 201.875,26.5625 Q202.0156,26.5 202.1875,26.5 Q202.5156,26.5 202.7578,26.7578 Q203,27.0156 203,27.375 Q203,27.7188 202.6563,28.125 Q202.1563,28.7188 201.3594,29.0469 Q200.3125,29.5 199.0313,29.5 Q197.5313,29.5 196.3281,28.9063 Q195.3594,28.4375 194.6797,27.4219 Q194,26.4063 194,25.2031 L194,24.1094 Q194,22.8594 194.6016,21.7656 Q195.2031,20.6719 196.2578,20.0859 Q197.3125,19.5 198.5,19.5 Q199.2188,19.5 199.8438,19.75 Q200.4688,20 201,20.5 Z "/><text fill="#000000" font-family="sans-serif" font-size="12" lengthAdjust="spacingAndGlyphs" textLength="74" x="213" y="28.9102">CardChannel</text><line style="stroke: #A80036; stroke-width: 1.5;" x1="185" x2="289" y1="40" y2="40"/><line style="stroke: #A80036; stroke-width: 1.5;" x1="185" x2="289" y1="48" y2="48"/><!--link CardChannel to FeitianCardChannel--><path d="M237,76.662 C237,88.417 237,101.751 237,115.633 " fill="none" id="CardChannel-FeitianCardChannel" style="stroke: #A80036; stroke-width: 1.0;"/><polygon fill="none" points="230,76.276,237,56.276,244,76.276,230,76.276" style="stroke: #A80036; stroke-width: 1.0;"/><!--
@startuml

package de.gematik.ti.cardreader.provider.bluetooth.feitian.entities {
      class FeitianCardChannel {
          - channelNo : int
          {static} - MANAGE_CHANNEL_COMMAND_CLOSE : CommandAPDU
          {static} - RESPONSE_SUCCESS : int
          {static} - LOW_CHANNEL_NUMBER_VALUE : int
          {static} - MAX_CHANNEL_NO_VALUE : int
          - channelClosed : boolean
          + FeitianCardChannel()
          + FeitianCardChannel()
          + getCard()
          + getChannelNumber()
          + transmit()
          + transmit()
          + close()
          - modifyCommandForLogicalChannel()
          - checkChannelClosed()
      }
    }
      FeitianCardChannel -up-|> CardChannel

@enduml

PlantUML version 1.2019.06(Fri May 24 19:10:25 CEST 2019)
(APACHE source distribution)
Java Runtime: OpenJDK Runtime Environment
JVM: OpenJDK 64-Bit Server VM
Java Version: 1.8.0_202-release-1483-b03
Operating System: Windows 7
OS Version: 6.1
Default Encoding: Cp1252
Language: de
Country: DE
--></g></svg>